<svg width="23" height="23" viewBox="0 0 23 23" fill="none" xmlns="http://www.w3.org/2000/svg">
<path d="M22.8538 11.0527C22.6483 10.7716 17.7526 4.17041 11.4999 4.17041C5.24715 4.17041 0.3512 10.7717 0.145951 11.0525C-0.0486505 11.3191 -0.0486505 11.6808 0.145951 11.9474C0.3512 12.2285 5.24715 18.8298 11.4999 18.8298C17.7526 18.8298 22.6483 12.2285 22.8538 11.9477C23.0487 11.6811 23.0487 11.3191 22.8538 11.0527ZM11.4999 17.3133C6.89408 17.3133 2.90497 12.9319 1.7241 11.4996C2.90344 10.066 6.8842 5.68689 11.4999 5.68689C16.1055 5.68689 20.0943 10.0675 21.2757 11.5006C20.0963 12.9341 16.1156 17.3133 11.4999 17.3133Z" fill="#16C1A1"/>
<path d="M11.4987 6.95044C8.99016 6.95044 6.94922 8.99138 6.94922 11.4999C6.94922 14.0084 8.99016 16.0494 11.4987 16.0494C14.0072 16.0494 16.0482 14.0084 16.0482 11.4999C16.0482 8.99138 14.0072 6.95044 11.4987 6.95044ZM11.4987 14.5329C9.82624 14.5329 8.46574 13.1723 8.46574 11.4999C8.46574 9.82751 9.82629 8.46696 11.4987 8.46696C13.1711 8.46696 14.5316 9.82751 14.5316 11.4999C14.5316 13.1723 13.1711 14.5329 11.4987 14.5329Z" fill="#16C1A1"/>
</svg>
