<svg width="25" height="25" viewBox="0 0 25 25" fill="none" xmlns="http://www.w3.org/2000/svg">
<g clip-path="url(#clip0_5173_1895)">
<path d="M24.4573 11.3792C24.9494 10.8996 25.1231 10.1957 24.9109 9.54145C24.6981 8.88717 24.1439 8.42011 23.4631 8.32099L17.4099 7.44143C17.152 7.40389 16.9293 7.24219 16.8141 7.00841L14.1079 1.52333C13.804 0.907091 13.1873 0.524132 12.5 0.524132C11.8131 0.524132 11.1964 0.907091 10.8925 1.52333L8.18578 7.00841C8.07064 7.24219 7.84737 7.40389 7.58957 7.44143L1.5363 8.32149C0.855985 8.42011 0.301819 8.88717 0.0890641 9.54145C-0.123191 10.1957 0.0505178 10.8996 0.542608 11.3792L4.92236 15.6483C5.10909 15.8305 5.19469 16.0928 5.15064 16.3491L4.1169 22.3779C4.00076 23.0552 4.27359 23.7265 4.82975 24.131C5.38542 24.5359 6.10879 24.5885 6.71802 24.2676L12.1315 21.4212C12.3623 21.3001 12.6376 21.3001 12.8684 21.4212L18.2824 24.2676C18.5467 24.4068 18.8331 24.4754 19.1179 24.4754C19.4878 24.4754 19.8563 24.3597 20.1707 24.131C20.7268 23.7265 20.9997 23.0552 20.8835 22.3779L19.8493 16.3496C19.8052 16.0928 19.8908 15.831 20.0776 15.6488L24.4573 11.3792ZM18.8631 16.5188L19.8968 22.5471C19.9489 22.8504 19.8313 23.1403 19.582 23.3215C19.3322 23.5022 19.0213 23.5242 18.7485 23.3821L13.3345 20.5351C13.0736 20.3985 12.7863 20.3294 12.5 20.3294C12.2136 20.3294 11.9268 20.3985 11.6655 20.5356L6.25246 23.3821C5.97863 23.5242 5.66776 23.5022 5.41846 23.3215C5.16916 23.1403 5.05202 22.8509 5.10358 22.5471L6.13732 16.5188C6.23694 15.9371 6.04421 15.3434 5.6217 14.9319L1.24145 10.6623C1.02068 10.447 0.945592 10.1437 1.04121 9.85082C1.13632 9.55747 1.37511 9.35623 1.67997 9.31168L7.73274 8.43212C8.31694 8.34752 8.82204 7.98108 9.08286 7.45145L11.7896 1.96636C11.9258 1.69003 12.1916 1.52533 12.4995 1.52533C12.8078 1.52533 13.0731 1.69003 13.2098 1.96636L15.9166 7.45145C16.1774 7.98108 16.682 8.34752 17.2662 8.43212L23.3194 9.31168C23.6243 9.35623 23.8631 9.55747 23.9582 9.85082C24.0533 10.1437 23.9787 10.447 23.758 10.6623L19.3782 14.9314C18.9557 15.3434 18.763 15.9366 18.8631 16.5188Z" fill="black"/>
</g>
<defs>
<clipPath id="clip0_5173_1895">
<rect width="25" height="25" fill="white"/>
</clipPath>
</defs>
</svg>
