<svg width="20" height="14" viewBox="0 0 20 14" fill="none" xmlns="http://www.w3.org/2000/svg">
<path d="M18.2422 0.148682H1.75781C0.788555 0.148682 0 0.937236 0 1.90649V12.0933C0 13.0625 0.788555 13.8511 1.75781 13.8511H18.2422C19.2114 13.8511 20 13.0625 20 12.0933V1.90649C20 0.937236 19.2114 0.148682 18.2422 0.148682ZM18.0128 1.32056L17.7782 1.51591L10.6974 7.41204C10.2933 7.74852 9.70664 7.74852 9.30258 7.41204L2.22184 1.51591L1.98723 1.32056H18.0128ZM1.17188 2.16657L6.94109 6.9706L1.17188 10.8102V2.16657ZM18.2422 12.6792H1.75781C1.47469 12.6792 1.23789 12.4774 1.18363 12.21L7.8807 7.75298L8.55273 8.31259C8.97203 8.66173 9.48606 8.8363 10 8.8363C10.514 8.8363 11.028 8.66173 11.4473 8.31259L12.1194 7.75298L18.8164 12.21C18.7621 12.4774 18.5253 12.6792 18.2422 12.6792ZM18.8281 10.8102L13.0589 6.97063L18.8281 2.16657V10.8102Z" fill="#ffffff"/>
</svg>
