<svg width="37" height="37" viewBox="0 0 37 37" fill="none" xmlns="http://www.w3.org/2000/svg">
<path d="M24.6667 7.70825C23.2495 7.70825 21.8462 7.98739 20.5369 8.52972C19.2276 9.07205 18.0379 9.86696 17.0358 10.8691C16.0337 11.8712 15.2388 13.0608 14.6965 14.3701C14.1541 15.6794 13.875 17.0827 13.875 18.4999C13.875 19.9171 14.1541 21.3204 14.6965 22.6297C15.2388 23.939 16.0337 25.1287 17.0358 26.1308C18.0379 27.1329 19.2276 27.9278 20.5369 28.4701C21.8462 29.0125 23.2495 29.2916 24.6667 29.2916C26.0838 29.2916 27.4872 29.0125 28.7965 28.4701C30.1058 27.9278 31.2954 27.1329 32.2975 26.1308C33.2996 25.1287 34.0945 23.939 34.6369 22.6297C35.1792 21.3204 35.4583 19.9171 35.4583 18.4999C35.4583 17.0827 35.1792 15.6794 34.6369 14.3701C34.0945 13.0608 33.2996 11.8712 32.2975 10.8691C31.2954 9.86696 30.1058 9.07205 28.7965 8.52972C27.4872 7.98739 26.0838 7.70825 24.6667 7.70825Z" fill="#FF9800"/>
<path d="M12.3333 7.70825C10.9161 7.70825 9.51281 7.98739 8.2035 8.52972C6.8942 9.07205 5.70453 9.86696 4.70243 10.8691C3.70033 11.8712 2.90542 13.0608 2.36309 14.3701C1.82076 15.6794 1.54163 17.0827 1.54163 18.4999C1.54163 19.9171 1.82076 21.3204 2.36309 22.6297C2.90542 23.939 3.70033 25.1287 4.70243 26.1308C5.70453 27.1329 6.8942 27.9278 8.2035 28.4701C9.51281 29.0125 10.9161 29.2916 12.3333 29.2916C13.7505 29.2916 15.1538 29.0125 16.4631 28.4701C17.7724 27.9278 18.9621 27.1329 19.9642 26.1308C20.9663 25.1287 21.7612 23.939 22.3035 22.6297C22.8458 21.3204 23.125 19.9171 23.125 18.4999C23.125 17.0827 22.8458 15.6794 22.3035 14.3701C21.7612 13.0608 20.9663 11.8712 19.9642 10.8691C18.9621 9.86696 17.7724 9.07205 16.4631 8.52972C15.1538 7.98739 13.7505 7.70825 12.3333 7.70825Z" fill="#D50000"/>
<path d="M13.875 18.5C13.875 22.1654 15.7065 25.399 18.5 27.3492C21.2935 25.399 23.125 22.1654 23.125 18.5C23.125 14.8347 21.2935 11.6011 18.5 9.65088C15.7065 11.6011 13.875 14.8347 13.875 18.5Z" fill="#FF3D00"/>
</svg>
