<svg width="25" height="25" viewBox="0 0 25 25" fill="none" xmlns="http://www.w3.org/2000/svg">
<g clip-path="url(#clip0_5173_1871)">
<path d="M12.5 12.5322C5.91182 12.5322 0.551743 17.8923 0.551743 24.4805C0.551743 24.7672 0.784491 25 1.07125 25C1.35801 25 1.59076 24.7672 1.59076 24.4805C1.59076 18.4648 6.48436 13.5711 12.5001 13.5711C18.5158 13.5711 23.4094 18.4648 23.4094 24.4805C23.4094 24.7672 23.6421 25 23.9289 25C24.2156 25 24.4484 24.7672 24.4484 24.4805C24.4483 17.8912 19.0882 12.5322 12.5 12.5322Z" fill="black"/>
<path d="M12.4999 0C9.34971 0 6.78554 2.56315 6.78554 5.71439C6.78554 8.86562 9.34976 11.4288 12.4999 11.4288C15.6501 11.4288 18.2143 8.86562 18.2143 5.71439C18.2143 2.56315 15.6501 0 12.4999 0ZM12.4999 10.3898C9.92221 10.3898 7.8245 8.2921 7.8245 5.71439C7.8245 3.13667 9.92221 1.03897 12.4999 1.03897C15.0776 1.03897 17.1753 3.13667 17.1753 5.71439C17.1753 8.2921 15.0776 10.3898 12.4999 10.3898Z" fill="black"/>
</g>
<defs>
<clipPath id="clip0_5173_1871">
<rect width="25" height="25" fill="white"/>
</clipPath>
</defs>
</svg>
