<svg width="56" height="43" viewBox="0 0 56 43" fill="none" xmlns="http://www.w3.org/2000/svg">
<rect y="6" width="56" height="32" rx="5" fill="#B6B3E4"/>
<g clip-path="url(#clip0_507_44)">
<path d="M21.7667 27.6773L23.9508 15.3916H27.3635L25.2476 27.6773H21.7667Z" fill="#3C58BF"/>
<path d="M21.7667 27.6773L24.5651 15.3916H27.3635L25.2476 27.6773H21.7667Z" fill="#293688"/>
<path d="M37.6015 15.5275C36.919 15.2545 35.8269 14.9814 34.4619 14.9814C31.0492 14.9814 28.592 16.6878 28.592 19.1449C28.592 20.9878 30.2984 21.9433 31.6635 22.5576C33.0285 23.1719 33.4381 23.5814 33.4381 24.1275C33.4381 24.9465 32.346 25.3561 31.3904 25.3561C30.0254 25.3561 29.2746 25.1513 28.1142 24.6735L27.6365 24.4687L27.1587 27.2672C27.9777 27.6084 29.4793 27.9497 31.0492 27.9497C34.6666 27.9497 37.0555 26.2434 37.0555 23.6497C37.0555 22.2164 36.1682 21.1243 34.1206 20.237C32.892 19.6227 32.1412 19.2814 32.1412 18.6672C32.1412 18.1211 32.7555 17.5751 34.1206 17.5751C35.2809 17.5751 36.1 17.7799 36.7142 18.0529L37.0555 18.1894L37.6015 15.5275Z" fill="#3C58BF"/>
<path d="M37.6015 15.5275C36.919 15.2545 35.8269 14.9814 34.4619 14.9814C31.0492 14.9814 29.2063 16.6878 29.2063 19.1449C29.2063 20.9878 30.2984 21.9433 31.6635 22.5576C33.0285 23.1719 33.4381 23.5814 33.4381 24.1275C33.4381 24.9465 32.346 25.3561 31.3904 25.3561C30.0254 25.3561 29.2746 25.1513 28.1142 24.6735L27.6365 24.4687L27.1587 27.2672C27.9777 27.6084 29.4793 27.9497 31.0492 27.9497C34.6666 27.9497 37.0555 26.2434 37.0555 23.6497C37.0555 22.2164 36.1682 21.1243 34.1206 20.237C32.892 19.6227 32.1412 19.2814 32.1412 18.6672C32.1412 18.1211 32.7555 17.5751 34.1206 17.5751C35.2809 17.5751 36.1 17.7799 36.7142 18.0529L37.0555 18.1894L37.6015 15.5275Z" fill="#293688"/>
<path d="M43.4714 15.3916C42.6524 15.3916 42.0381 15.4599 41.6968 16.2789L36.5778 27.6773H40.2635L40.946 25.6297H45.3142L45.7238 27.6773H49L46.1333 15.3916H43.4714V15.3916ZM41.9016 23.5821C42.1063 22.9678 43.2666 19.9646 43.2666 19.9646C43.2666 19.9646 43.5396 19.2138 43.7444 18.736L43.9492 19.8964C43.9492 19.8964 44.6317 22.9678 44.7682 23.6503H41.9016V23.5821Z" fill="#3C58BF"/>
<path d="M44.2904 15.3916C43.4714 15.3916 42.8571 15.4599 42.5158 16.2789L36.5778 27.6773H40.2635L40.946 25.6297H45.3142L45.7238 27.6773H49L46.1333 15.3916H44.2904V15.3916ZM41.9016 23.5821C42.1746 22.8995 43.2666 19.9646 43.2666 19.9646C43.2666 19.9646 43.5396 19.2138 43.7444 18.736L43.9492 19.8964C43.9492 19.8964 44.6317 22.9678 44.7682 23.6503H41.9016V23.5821Z" fill="#293688"/>
<path d="M15.4873 23.9917L15.1461 22.2171C14.5318 20.1695 12.5524 17.9171 10.3683 16.825L13.4397 27.7457H17.1254L22.654 15.46H18.9683L15.4873 23.9917Z" fill="#3C58BF"/>
<path d="M15.4873 23.9917L15.1461 22.2171C14.5318 20.1695 12.5524 17.9171 10.3683 16.825L13.4397 27.7457H17.1254L22.654 15.46H19.6508L15.4873 23.9917Z" fill="#293688"/>
<path d="M6 15.3916L6.61429 15.5281C10.9825 16.5519 13.9857 19.1456 15.146 22.217L13.9175 16.4154C13.7127 15.5964 13.0984 15.3916 12.3476 15.3916H6V15.3916Z" fill="#FFBC00"/>
<path d="M6 15.3916C10.3683 16.4154 13.9857 19.0773 15.146 22.1487L13.9857 17.3027C13.781 16.4837 13.0984 16.0059 12.3476 16.0059L6 15.3916Z" fill="#F7981D"/>
<path d="M6 15.3916C10.3683 16.4154 13.9857 19.0773 15.146 22.1487L14.327 19.4868C14.1222 18.6678 13.8492 17.8487 12.8937 17.5075L6 15.3916Z" fill="#ED7C00"/>
<path d="M18.9 23.5822L16.5794 21.2616L15.4873 23.8552L15.2143 22.1489C14.6 20.1013 12.6207 17.8489 10.4365 16.7568L13.508 27.6775H17.1937L18.9 23.5822Z" fill="#051244"/>
<path d="M25.2476 27.677L22.3127 24.6738L21.7667 27.677H25.2476Z" fill="#051244"/>
<path d="M33.0968 23.4463C33.3699 23.7193 33.5064 23.9241 33.4381 24.1971C33.4381 25.0161 32.3461 25.4257 31.3905 25.4257C30.0254 25.4257 29.2746 25.2209 28.1143 24.7431L27.6365 24.5384L27.1588 27.3368C27.9778 27.678 29.4794 28.0193 31.0492 28.0193C33.2334 28.0193 35.008 27.405 36.0318 26.313L33.0968 23.4463Z" fill="#051244"/>
<path d="M37.0556 27.6776H40.2635L40.9461 25.63H45.3143L45.7239 27.6776H49.0001L47.8397 22.6951L43.7445 18.7363L43.9493 19.8284C43.9493 19.8284 44.6318 22.8998 44.7683 23.5824H41.9016C42.1747 22.8998 43.2667 19.9649 43.2667 19.9649C43.2667 19.9649 43.5397 19.2141 43.7445 18.7363" fill="#051244"/>
</g>
<defs>
<clipPath id="clip0_507_44">
<rect width="43" height="43" fill="white" transform="translate(6)"/>
</clipPath>
</defs>
</svg>
