<svg width="43" height="43" viewBox="0 0 43 43" fill="none" xmlns="http://www.w3.org/2000/svg">
<g clip-path="url(#clip0_547_2222)">
<path d="M15.7666 27.6771L17.9507 15.3914H21.3634L19.2476 27.6771H15.7666Z" fill="#3C58BF"/>
<path d="M15.7666 27.6771L18.565 15.3914H21.3634L19.2476 27.6771H15.7666Z" fill="#293688"/>
<path d="M31.6015 15.5277C30.919 15.2547 29.8269 14.9817 28.4619 14.9817C25.0492 14.9817 22.592 16.688 22.592 19.1452C22.592 20.988 24.2984 21.9436 25.6635 22.5579C27.0285 23.1722 27.4381 23.5817 27.4381 24.1277C27.4381 24.9468 26.346 25.3563 25.3904 25.3563C24.0254 25.3563 23.2746 25.1515 22.1142 24.6738L21.6365 24.469L21.1587 27.2674C21.9777 27.6087 23.4793 27.9499 25.0492 27.9499C28.6666 27.9499 31.0555 26.2436 31.0555 23.6499C31.0555 22.2166 30.1682 21.1245 28.1206 20.2372C26.892 19.623 26.1412 19.2817 26.1412 18.6674C26.1412 18.1214 26.7555 17.5753 28.1206 17.5753C29.2809 17.5753 30.1 17.7801 30.7142 18.0531L31.0555 18.1896L31.6015 15.5277Z" fill="#3C58BF"/>
<path d="M31.6015 15.5277C30.919 15.2547 29.8269 14.9817 28.4619 14.9817C25.0492 14.9817 23.2063 16.688 23.2063 19.1452C23.2063 20.988 24.2984 21.9436 25.6635 22.5579C27.0285 23.1722 27.4381 23.5817 27.4381 24.1277C27.4381 24.9468 26.346 25.3563 25.3904 25.3563C24.0254 25.3563 23.2746 25.1515 22.1142 24.6738L21.6365 24.469L21.1587 27.2674C21.9777 27.6087 23.4793 27.9499 25.0492 27.9499C28.6666 27.9499 31.0555 26.2436 31.0555 23.6499C31.0555 22.2166 30.1682 21.1245 28.1206 20.2372C26.892 19.623 26.1412 19.2817 26.1412 18.6674C26.1412 18.1214 26.7555 17.5753 28.1206 17.5753C29.2809 17.5753 30.1 17.7801 30.7142 18.0531L31.0555 18.1896L31.6015 15.5277Z" fill="#293688"/>
<path d="M37.4714 15.3914C36.6524 15.3914 36.0381 15.4596 35.6968 16.2787L30.5778 27.6771H34.2635L34.946 25.6294H39.3142L39.7238 27.6771H43L40.1333 15.3914H37.4714ZM35.9016 23.5818C36.1063 22.9675 37.2666 19.9644 37.2666 19.9644C37.2666 19.9644 37.5396 19.2136 37.7444 18.7358L37.9492 19.8961C37.9492 19.8961 38.6317 22.9675 38.7682 23.6501H35.9016V23.5818Z" fill="#3C58BF"/>
<path d="M38.2904 15.3914C37.4714 15.3914 36.8571 15.4596 36.5158 16.2787L30.5778 27.6771H34.2635L34.946 25.6294H39.3142L39.7238 27.6771H43L40.1333 15.3914H38.2904ZM35.9016 23.5818C36.1746 22.8993 37.2666 19.9644 37.2666 19.9644C37.2666 19.9644 37.5396 19.2136 37.7444 18.7358L37.9492 19.8961C37.9492 19.8961 38.6317 22.9675 38.7682 23.6501H35.9016V23.5818Z" fill="#293688"/>
<path d="M9.48733 23.9912L9.14606 22.2166C8.53178 20.169 6.55241 17.9166 4.36829 16.8246L7.43971 27.7452H11.1254L16.654 15.4595H12.9683L9.48733 23.9912Z" fill="#3C58BF"/>
<path d="M9.48733 23.9912L9.14606 22.2166C8.53178 20.169 6.55241 17.9166 4.36829 16.8246L7.43971 27.7452H11.1254L16.654 15.4595H13.6508L9.48733 23.9912Z" fill="#293688"/>
<path d="M0 15.3914L0.614286 15.5279C4.98254 16.5517 7.98571 19.1453 9.14603 22.2168L7.91746 16.4152C7.7127 15.5961 7.09841 15.3914 6.34762 15.3914H0Z" fill="#FFBC00"/>
<path d="M0 15.3914C4.36825 16.4152 7.98571 19.0771 9.14603 22.1485L7.98571 17.3025C7.78095 16.4834 7.09841 16.0056 6.34762 16.0056L0 15.3914Z" fill="#F7981D"/>
<path d="M0 15.3914C4.36825 16.4152 7.98571 19.0771 9.14603 22.1485L8.32698 19.4866C8.12222 18.6675 7.84921 17.8485 6.89365 17.5072L0 15.3914Z" fill="#ED7C00"/>
<path d="M12.9 23.5817L10.5794 21.2611L9.48732 23.8548L9.2143 22.1484C8.60002 20.1008 6.62065 17.8484 4.43652 16.7563L7.50795 27.677H11.1937L12.9 23.5817Z" fill="#051244"/>
<path d="M19.2476 27.677L16.3126 24.6738L15.7666 27.677H19.2476Z" fill="#051244"/>
<path d="M27.0968 23.4453C27.3698 23.7183 27.5063 23.9231 27.4381 24.1961C27.4381 25.0152 26.346 25.4247 25.3904 25.4247C24.0254 25.4247 23.2746 25.2199 22.1142 24.7421L21.6365 24.5374L21.1587 27.3358C21.9777 27.6771 23.4793 28.0183 25.0492 28.0183C27.2333 28.0183 29.0079 27.404 30.0317 26.312L27.0968 23.4453Z" fill="#051244"/>
<path d="M31.0555 27.6771H34.2635L34.946 25.6295H39.3143L39.7238 27.6771H43L41.8397 22.6946L37.7444 18.7358L37.9492 19.8279C37.9492 19.8279 38.6317 22.8993 38.7682 23.5819H35.9016C36.1746 22.8993 37.2667 19.9644 37.2667 19.9644C37.2667 19.9644 37.5397 19.2136 37.7444 18.7358" fill="#051244"/>
</g>
<defs>
<clipPath id="clip0_547_2222">
<rect width="43" height="43" fill="white"/>
</clipPath>
</defs>
</svg>
